<?xml version="1.0" standalone="no"?>
<!DOCTYPE svg PUBLIC "-//W3C//DTD SVG 20010904//EN"
 "http://www.w3.org/TR/2001/REC-SVG-20010904/DTD/svg10.dtd">
<svg version="1.0" xmlns="http://www.w3.org/2000/svg"
 width="120.000000pt" height="120.000000pt" viewBox="0 0 120.000000 120.000000"
 preserveAspectRatio="xMidYMid meet">
<metadata>
Created by potrace 1.14, written by Peter Selinger 2001-2017
</metadata>
<g transform="translate(0.000000,120.000000) scale(0.100000,-0.100000)"
fill="#000000" stroke="none">
<path d="M477 1085 c-158 -34 -319 -159 -390 -305 -101 -206 -77 -449 60 -618
25 -30 30 -42 19 -42 -9 0 -16 -4 -16 -10 0 -7 160 -10 460 -10 300 0 460 3
460 10 0 6 -9 10 -21 10 -19 0 -19 3 10 39 174 219 160 549 -32 752 -85 90
-163 138 -278 170 -60 17 -202 19 -272 4z"/>
</g>
</svg>
